<svg xmlns="http://www.w3.org/2000/svg" width="800" height="800" fill="none" viewBox="0 0 24 24"><path fill="#0F0F0F" fill-rule="evenodd" d="M23 4c0-.884-1.145-1.198-1.902-1.407l-.198-.055C19.954 2.268 18.61 2 17 2c-1.724 0-3.145.574-4.121 1.132-.15.085-.306.203-.448.31-.188.14-.349.261-.431.261-.082 0-.243-.12-.43-.262-.143-.106-.3-.224-.449-.31C10.145 2.575 8.724 2 7 2c-1.61 0-2.954.268-3.9.538l-.19.053C2.156 2.8 1 3.117 1 4v13a1 1 0 0 0 .474.85c.47.29 1.088.037 1.637-.188.191-.078.374-.153.539-.2C4.454 17.232 5.61 17 7 17c1.261 0 2.206.416 2.913.852.182.112.366.254.555.4.466.363.962.748 1.532.748.572 0 1.065-.384 1.53-.746.19-.147.374-.29.557-.402C14.794 17.416 15.739 17 17 17c1.39 0 2.546.232 3.35.462.173.049.36.128.554.21.54.228 1.135.48 1.622.179A1 1 0 0 0 23 17V4Zm-19.667.557A.483.483 0 0 0 3 5.022v9.877c0 .334.32.574.645.496A14.37 14.37 0 0 1 7 15c1.763 0 3.08.6 4 1.172V5.456a6.982 6.982 0 0 0-.871-.588C9.355 4.426 8.276 4 7 4c-1.585 0-2.87.303-3.667.557ZM17 15c-1.763 0-3.08.6-4 1.172V5.456c.201-.16.496-.374.871-.588C14.645 4.426 15.724 4 17 4c1.585 0 2.87.303 3.668.557.2.065.332.254.332.465v9.877a.52.52 0 0 1-.645.496A14.37 14.37 0 0 0 17 15Z" clip-rule="evenodd"/><path fill="#0F0F0F" d="M2.087 20.409a1 1 0 0 1 .504-1.322c.469-.208.953-.383 1.44-.54C4.842 18.289 5.96 18 7 18c1.167 0 2.163.629 2.885 1.085l.109.068c.84.53 1.406.847 2.006.847.599 0 1.161-.317 2.001-.846l.106-.067C14.829 18.63 15.826 18 17 18c1.047 0 2.165.288 2.973.548.726.233 1.265.464 1.403.525.506.224.768.821.536 1.337a1.01 1.01 0 0 1-1.325.5c-.399-.175-.81-.325-1.226-.458C18.614 20.212 17.732 20 17 20c-.56 0-1.096.319-1.993.884C14.264 21.353 13.237 22 12 22c-1.238 0-2.268-.648-3.013-1.117C8.088 20.317 7.552 20 7 20c-.726 0-1.608.212-2.357.452-.418.134-.833.283-1.234.46a1 1 0 0 1-1.322-.503Z"/></svg>