<svg xmlns="http://www.w3.org/2000/svg" xml:space="preserve" style="fill-rule:evenodd;clip-rule:evenodd;stroke-linecap:round;stroke-linejoin:round;stroke-miterlimit:1.5;" viewBox="0 0 504 235"><path d="M678.329 114.273c0-7.254-5.889-13.143-13.143-13.143h-94.715c-7.253 0-13.142 5.889-13.142 13.143 0 7.253 5.889 13.142 13.142 13.142h94.715c7.254 0 13.143-5.889 13.143-13.142Z" style="fill:white;" transform="matrix(4.16308 0 0 6.04379 -2320.204 -611.208)"/><path d="M678.329 114.273c0-7.254-5.889-13.143-13.143-13.143h-94.715c-7.253 0-13.142 5.889-13.142 13.143 0 7.253 5.889 13.142 13.142 13.142h94.715c7.254 0 13.143-5.889 13.143-13.142Zm-1.201 0c0 4.116-1.972 7.776-5.058 10.039-1.933 1.418-4.304 2.276-6.884 2.276h-94.715c-2.579 0-4.95-.858-6.884-2.276a12.403 12.403 0 0 1-5.057-10.039c0-4.117 1.971-7.777 5.057-10.039 1.934-1.418 4.305-2.277 6.884-2.277h94.715c2.58 0 4.951.859 6.884 2.277a12.4 12.4 0 0 1 5.058 10.039Z" style="fill-opacity:0.6;" transform="matrix(4.16308 0 0 6.04379 -2320.204 -611.208)"/><circle cx="88.959" cy="391.91" r="26.22" transform="translate(163.472 -311.35)"/><circle cx="88.959" cy="391.91" r="26.22" transform="translate(343.471 -311.35)"/><circle cx="88.959" cy="391.91" r="26.22" transform="translate(-16.528 -311.35)"/><path d="M110.472 250.615h63.698" style="fill:none;stroke:white;stroke-width:6px;" transform="translate(86.487 -94.22)"/><path d="M277.545 201.328h21.51l-33.091 33.092-33.092-33.092h21.51v-47.465h23.163v47.465Z"/></svg>